<svg width="254" height="216" viewBox="0 0 254 216" fill="none" xmlns="http://www.w3.org/2000/svg">
<path d="M136.372 155.374C131.161 150.896 123.027 151.174 118.206 156.534C113.41 161.868 110.85 168.466 108.218 175.07L103.973 185.725C100.545 194.332 95.8395 201.895 89.0214 208.311C85.217 211.889 80.3368 214.047 75.2298 215.272C63.6287 218.059 51.5027 212.699 46.9141 201.694C44.2698 195.349 45.3003 187.805 50.6796 183.806C53.8553 181.447 57.9902 180.845 60.9715 183.301C55.1774 183.651 51.4573 187.676 51.885 193.301C52.1702 197.054 53.6544 200.145 56.7264 202.141C62.1705 205.68 68.4376 205.797 74.1021 202.452C84.1023 196.548 86.8892 185.647 89.7797 175.245L95.4377 154.888C87.1419 159.742 81.0886 164.162 71.7818 165.141C62.6889 166.094 53.8034 164.636 44.9374 161.998C34.8853 159.01 16.9587 151.758 10.5101 163.236C7.99541 167.714 8.05372 173.106 11.1841 177.837C14.5153 182.88 22.3963 183.949 27.1987 180.203C29.2144 178.628 29.6032 176.185 31.4698 174.059C32.8891 179.082 30.1541 183.865 25.6757 186.49C18.6891 190.586 9.55734 188.291 4.53453 181.616C-4.26673 169.924 0.28945 153.307 13.4913 147.091C20.5881 143.747 28.0542 143.313 35.7667 144.635L51.3277 147.305C58.5151 148.543 65.586 148.537 72.5077 145.704C83.4801 141.213 92.3268 131.362 94.109 119.56C95.9626 107.265 90.6417 101.173 84.2125 91.0238C74.1604 75.1582 70.5051 56.7067 75.4566 38.4366C78.9888 25.4162 87.0901 15.0336 98.4902 7.70353C107.719 1.77337 118.718 -0.0996536 129.69 0.00404308C145.731 0.159588 159.743 6.73784 170.086 18.8315C186.879 38.4626 185.92 69.4031 172.653 89.7665L165.809 100.266C162.704 105.036 161.227 109.735 161.389 115.49C161.959 136.028 182.485 150.986 202.122 147.681L220.444 144.603C228.221 143.293 236.135 143.637 242.894 147.312C253.18 152.905 256.997 165.148 250.659 174.778C246.705 180.786 238.805 183.333 232.719 178.913C236.225 177.967 239.628 178.784 242.603 176.353C246.971 172.776 248.118 164.506 243.653 160.416C235.895 153.32 220.872 158.764 211.798 161.777C177.235 173.242 164.117 154.318 161.369 155.97C161.188 156.081 160.689 156.554 160.812 157.007L166.379 177.312C169.224 187.689 172.53 196.743 181.649 202.388C187.598 206.069 194.915 205.874 200.45 200.975C202.842 198.855 204.306 194.863 204.073 191.668C203.678 186.315 199.433 183.418 194.235 183.956C195.259 182.659 197.229 181.758 198.473 181.771C206.257 181.875 211.027 188.946 210.223 196.529C209.446 203.891 205.019 209.925 198.24 213.263C180.754 221.863 161.842 208.37 154.759 191.72L143.093 164.299C141.537 160.643 139.431 157.967 136.398 155.361L136.372 155.374Z" fill="#2B80D6"/>
<path d="M47.7307 123.552C40.1932 108.827 45.741 91.5683 35.5463 83.3308C32.5845 80.9393 27.9505 80.6801 24.1721 81.2828C18.0799 82.2485 13.3747 87.9777 13.0247 93.9403C12.7849 97.965 13.1867 101.322 14.8005 104.679C7.60654 101.491 5.97332 93.8172 8.19631 87.1223C10.0434 81.555 14.0811 76.8498 19.5317 73.9398C32.228 67.1606 47.7307 73.9398 53.0711 87.1611C55.5728 93.3505 56.9208 99.4233 58.2494 105.859C61.2113 120.227 73.6743 125.062 88.2437 121.88C85.4374 130.293 79.6758 137.149 71.2699 140.721C61.5872 138.796 52.4424 132.768 47.7307 123.559V123.552Z" fill="#2B80D6"/>
<path d="M210.321 118.29C208.493 123.727 206.037 129.152 201.124 132.619C196.749 135.704 190.579 141.032 184.883 139.923C176.243 138.232 170.709 129.236 167.902 121.802C176.645 123.578 185.686 123.137 191.999 116.857C201.805 107.103 196.283 82.1513 216.128 73.4732C223.082 70.4336 230.587 70.4206 237.567 74.5037C242.953 77.6535 247.71 84.0502 248.423 91.4386C248.961 97.0253 246.355 102.618 241.261 104.725C243.393 99.2612 244.301 93.532 241.533 88.8397C239.071 84.6659 235.402 81.9374 231.501 81.3088C226.666 80.5246 221.792 81.6198 218.649 85.1131C211.766 92.7608 214.754 105.101 210.314 118.29H210.321Z" fill="#2B80D6"/>
</svg>
